<svg id="Layer_1" data-name="Layer 1" xmlns="http://www.w3.org/2000/svg" xmlns:xlink="http://www.w3.org/1999/xlink" viewBox="0 0 402.28 363.98"><defs><style>.cls-1{fill:none;}.cls-2{clip-path:url(#clip-path);}.cls-3{fill:#95c93d;}.cls-4{fill:#46a847;}.cls-5{fill:#fff;}</style><clipPath id="clip-path" transform="translate(1.98 7.6)"><circle class="cls-1" cx="169.55" cy="170.94" r="164.96"/></clipPath></defs><g class="cls-2"><rect class="cls-3" x="6.15" width="396.13" height="363.98"/><path class="cls-4" d="M165.6,107.47c-10.53,13.26-52.43,2.46-55.64,30.63-2.37,20.78,36.08,31.53,34.63,48.7-1.77,20.84-33.83,26.67-28.08,53.38,6.92,32.09,94.44,58.7,85.2,98.58-.12.51-.22,3.27-1,3.71-5.37,3.09-25,2.25-29.8,2.14-97.66-2.28-175-80.24-172.86-174.13S81.21,2.34,178.87,4.62c17.39.41,27.81,2.74,27.81,2.74s-13-6.08-33.84,9.4c-10.82,8-25.55,23.82-12.67,50.06C167.48,81.72,176.13,94.21,165.6,107.47Z" transform="translate(1.98 7.6)"/></g><path class="cls-5" d="M198.62,249.87l-35.22.79q-.15,0-5-10.73l-29.2-64.87L97.94,105.55l-3.69-8.33,35.41,0q.48.8,6.9,16l29.2,66.31,11.39,25.62" transform="translate(1.98 7.6)"/><path class="cls-5" d="M208.93,199.68a3.25,3.25,0,0,0,5.15,1c7.26-6.66,24.66-24.76,29.43-49.09,6.08-31-10.64-60.37-10.64-60.37s-26.57,20.88-32.65,51.88C195.45,167.44,204.72,190.77,208.93,199.68Z" transform="translate(1.98 7.6)"/><g class="cls-2"><rect class="cls-3" x="6.15" width="396.13" height="363.98"/><path class="cls-4" d="M165.6,107.47c-10.53,13.26-52.43,2.46-55.64,30.63-2.37,20.78,36.08,31.53,34.63,48.7-1.77,20.84-33.83,26.67-28.08,53.38,6.92,32.09,94.44,58.7,85.2,98.58-.12.51-.22,3.27-1,3.71-5.37,3.09-25,2.25-29.8,2.14-97.66-2.28-175-80.24-172.86-174.13S81.21,2.34,178.87,4.62c17.39.41,27.81,2.74,27.81,2.74s-13-6.08-33.84,9.4c-10.82,8-25.55,23.82-12.67,50.06C167.48,81.72,176.13,94.21,165.6,107.47Z" transform="translate(1.98 7.6)"/></g><path class="cls-5" d="M198.62,249.87l-35.22.79q-.15,0-5-10.73l-29.2-64.87L97.94,105.55l-3.69-8.33,35.41,0q.48.8,6.9,16l29.2,66.31,11.39,25.62" transform="translate(1.98 7.6)"/><path class="cls-5" d="M208.93,199.68a3.25,3.25,0,0,0,5.15,1c7.26-6.66,24.66-24.76,29.43-49.09,6.08-31-10.64-60.37-10.64-60.37s-26.57,20.88-32.65,51.88C195.45,167.44,204.72,190.77,208.93,199.68Z" transform="translate(1.98 7.6)"/></svg>